<svg viewBox="0 0 16 16" fill="none" xmlns="http://www.w3.org/2000/svg">
<g clip-path="url(#clip0_1_46)">
<path d="M9.44265 1.7485C9.44265 2.54527 8.79677 3.19115 8 3.19115C7.20323 3.19115 6.55735 2.54527 6.55735 1.7485C6.55735 0.951735 7.20323 0.305847 8 0.305847C8.79677 0.305847 9.44265 0.951735 9.44265 1.7485ZM8 12.8088C7.20323 12.8088 6.55735 13.4547 6.55735 14.2515C6.55735 15.0483 7.20323 15.6942 8 15.6942C8.79677 15.6942 9.44265 15.0483 9.44265 14.2515C9.44265 13.4547 8.79677 12.8088 8 12.8088ZM14.2515 6.55735C13.4547 6.55735 12.8088 7.20323 12.8088 8C12.8088 8.79677 13.4547 9.44265 14.2515 9.44265C15.0483 9.44265 15.6942 8.79677 15.6942 8C15.6942 7.20323 15.0483 6.55735 14.2515 6.55735ZM3.19115 8C3.19115 7.20323 2.54527 6.55735 1.7485 6.55735C0.951735 6.55735 0.305847 7.20323 0.305847 8C0.305847 8.79677 0.951735 9.44265 1.7485 9.44265C2.54527 9.44265 3.19115 8.79677 3.19115 8ZM3.57953 10.9778C2.78276 10.9778 2.13688 11.6237 2.13688 12.4205C2.13688 13.2172 2.78276 13.8631 3.57953 13.8631C4.37629 13.8631 5.02218 13.2172 5.02218 12.4205C5.02218 11.6237 4.37626 10.9778 3.57953 10.9778ZM12.4205 10.9778C11.6237 10.9778 10.9778 11.6237 10.9778 12.4205C10.9778 13.2172 11.6237 13.8631 12.4205 13.8631C13.2172 13.8631 13.8631 13.2172 13.8631 12.4205C13.8631 11.6237 13.2172 10.9778 12.4205 10.9778ZM3.57953 2.13688C2.78276 2.13688 2.13688 2.78276 2.13688 3.57953C2.13688 4.37629 2.78276 5.02218 3.57953 5.02218C4.37629 5.02218 5.02218 4.37629 5.02218 3.57953C5.02218 2.78276 4.37626 2.13688 3.57953 2.13688Z" fill="currentColor"/>
</g>
<defs>
<clipPath id="clip0_1_46">
<rect width="15.3883" height="15.3883" fill="white" transform="translate(0.305847 0.305847)"/>
</clipPath>
</defs>
</svg>
